<?xml version="1.0" encoding="utf-8"?>
<!-- Generator: Adobe Illustrator 22.0.1, SVG Export Plug-In . SVG Version: 6.00 Build 0)  -->
<svg version="1.1" id="Layer_1" xmlns="http://www.w3.org/2000/svg" xmlns:xlink="http://www.w3.org/1999/xlink" x="0px" y="0px"
	 viewBox="0 0 68 68" style="enable-background:new 0 0 68 68;" xml:space="preserve">
<g>
	<path d="M40.1641579,22.769289l-0.710022-3.3499756c-0.3400269-1.6099854-1.3699951-2.960022-2.8099976-3.7299795
		c-1.4500122-0.7600098-3.1500244-0.8400269-4.7089863-0.1900024l-8.5510254,4.749999
		c1.3410034-0.1799927,2.6699829-0.2800293,3.9899902-0.2800293C31.5440998,19.9693012,35.8451271,20.9093037,40.1641579,22.769289"
		/>
	<path d="M23.4043903,47.7492714l8.5799561,4.7700195c0.6700459,0.2800293,1.3900166,0.4199829,2.1000385,0.4199829
		c0.8800049,0,1.7599487-0.2099609,2.5599976-0.6299438c1.4400024-0.7700195,2.4699707-2.1200562,2.8099976-3.7300415
		l0.7099609-3.3499756c-4.3499756,1.8699951-8.6399555,2.8099976-12.7899799,2.8099976
		C26.0643635,48.0393105,24.7443562,47.9392738,23.4043903,47.7492714"/>
	<path d="M63.9043922,23.3590717c-2.5210571,1.1500244-6.1300049,2.9700317-9.0900269,5.1300049
		c-0.0300293,0.0200195-0.0599976,0.0300293-0.0900269,0.0500488c-1,0.7099609-2.1900024,1.0499878-3.4209595,0.9799805
		c-0.0390015-0.0200195-0.0889893-0.0300293-0.1390381-0.039978c-0.0899658-0.0100098-0.1900024-0.0100098-0.2810059-0.0100098
		c-0.05896-0.0100098-0.1089478-0.0100098-0.1689453-0.0100098c-0.9110107-0.1300049-1.7890015-0.4899902-2.5599976-1.0300293
		c-2.6200562-1.8599854-5.3000488-3.3999634-7.9700317-4.5700073c-4.3300171-1.9199829-8.6500263-2.8899536-12.8099995-2.8899536
		c-2.1989746,0-4.460022,0.2799683-6.7199707,0.8200073c-1.9300232,0.4699707-3.9100037,1.1399536-5.9300232,2.0199585
		c2.8900146,2.3300171,4.6000061,6.0900269,4.6000061,10.1000385c0,4.0700073-1.7600098,7.8800049-4.7399902,10.2199707
		c2.0700073,0.9199829,4.1199951,1.6199951,6.0910034,2.0900269c2.2589722,0.539978,4.5189819,0.8200073,6.6989746,0.8200073
		c4.1400146,0,8.4500141-0.9800415,12.8099995-2.9000244c2.7200317-1.1900024,5.4400024-2.75,8.0900269-4.6300049
		c0.6999512-0.4799805,1.4400024-0.7999878,2.2199707-0.9500122c0.0900269-0.0199585,0.2000122-0.0299683,0.2600098-0.039978
		c0.1199951,0,0.2600098-0.0100098,0.3900146-0.0200195c0.0499878-0.0100098,0.0999756-0.0199585,0.1499634-0.039978
		c1.2800293-0.0700073,2.5400391,0.2999878,3.6000366,1.0599976c2.8899536,2.1099854,6.4799805,3.9099731,8.9799805,5.0599976
		c0.7000084,0.3099976,1.4899864,0.1199951,1.9600182-0.460022c0.4799805-0.5899658,0.5-1.3699951,0.0599976-1.9899902
		c-1.9000206-2.6400146-2.9689903-5.0499878-3.1799889-7.1300049v-1.9899902
		c0.2699585-2.7000141,1.8899498-5.4000263,3.2109947-7.2000141c0.4389648-0.6199951,0.4089966-1.4199829-0.0710449-2.0100098
		C65.3743591,23.2191181,64.5843811,23.0391254,63.9043922,23.3590717"/>
	<path d="M13.2744465,43.5291786c0.0700073,0.0400391,0.1400146,0.0500488,0.210022,0.0500488
		c0.1099854,0,0.2199707-0.0300293,0.3099976-0.1000366c2.8299866-2.1400146,4.5299988-5.7199707,4.5299988-9.5700073
		c0-3.7799702-1.6400146-7.3099995-4.3800049-9.4500141c-0.1499939-0.1199951-0.3500061-0.1399536-0.5200195-0.0599976
		c-4.519989,2.1600342-8.0799866,4.8400269-10.2599792,6.6900024c-0.8900146,0.7200317-1.3999939,1.7800312-1.3999939,2.9100361
		s0.5099792,2.1900024,1.3899841,2.8999634C5.3244653,38.7492104,8.8444538,41.3991737,13.2744465,43.5291786
		 M10.4844685,29.4591694c0.6489868,0,1.1899719,0.5300293,1.1899719,1.1900024
		c0,0.6600342-0.5409851,1.1800537-1.1899719,1.1800537c-0.6600037,0-1.1810303-0.5200195-1.1810303-1.1800537
		C9.3034382,29.9891987,9.8244648,29.4591694,10.4844685,29.4591694"/>
</g>
</svg>
