<?xml version="1.0" encoding="UTF-8" standalone="no"?>
<!DOCTYPE svg PUBLIC "-//W3C//DTD SVG 1.1//EN" "http://www.w3.org/Graphics/SVG/1.1/DTD/svg11.dtd">
<svg width="100%" height="100%" viewBox="0 0 3000 3001" version="1.1" xmlns="http://www.w3.org/2000/svg" xmlns:xlink="http://www.w3.org/1999/xlink" xml:space="preserve" xmlns:serif="http://www.serif.com/" style="fill-rule:evenodd;clip-rule:evenodd;stroke-linejoin:round;stroke-miterlimit:2;">
    <g transform="matrix(1,0,0,1,-12832,-4073)">
        <g id="Artboard10" transform="matrix(1,0,0,1,-16040.3,4073.05)">
            <rect x="28872.3" y="0" width="3000" height="3000" style="fill:none;"/>
            <g transform="matrix(4.63831,0,0,4.68522,17239.7,-9365.33)">
                <g transform="matrix(1.32256,0,0,1.32256,1850.04,1527.43)">
                    <path d="M692.416,535.875C703.14,550.093 717.001,567.479 740.413,618.554C759.796,660.841 770.357,694.29 776.387,726.461C782.281,757.908 778.666,766.411 798.073,765.502C802.93,765.274 820.691,769.811 806.375,771.899C797.909,773.134 798.401,775.961 790.55,775.486C785.039,775.153 785.084,775.749 780.165,778.267C771.423,782.74 777.569,790.475 772.994,794.187C766.868,799.157 760.936,788.066 751.195,788.813C746.465,789.176 746.515,789.563 741.826,789.03C736.88,788.467 734.31,791.896 728.267,789.827C735.184,783.072 746.009,788.706 746.301,767.389C746.914,722.585 731.657,660.394 723.846,636.235C714.888,608.53 705.585,580.875 655.49,505.702C655.166,505.216 651.043,500.266 655.628,498.319C657.003,497.736 661.016,498.036 664.314,502.24C665.772,504.097 678.373,517.256 692.416,535.875Z" style="fill:rgb(174,125,66);"/>
                </g>
                <g transform="matrix(1.32256,0,0,1.32256,1850.04,1527.43)">
                    <path d="M649.671,554.243C645.002,553.215 644.217,552.909 638.665,547.397C642.78,555.36 643.703,554.659 648.143,559.648C652.564,564.616 651.731,577.738 651.63,579.334C651.301,584.531 641.845,577.983 639.454,576.534C651.887,588.525 649.801,590.111 653.627,611.535C653.958,613.386 656.824,620.448 649.82,618.396C637.539,614.8 621.17,591.488 620.381,570.999C618.914,532.848 636.584,516.372 638.318,514.315C636.598,515.507 628.253,519.305 612.927,538.692C609.291,535.244 609.889,534.903 607.784,530.399C606.341,543.107 610.577,544.649 602.409,554.55C597.003,561.103 595.49,556.68 592.856,551.842C592.252,560.054 593.956,561.306 593.207,565.681C592.419,570.277 589.325,576.08 588.871,576.931C584.699,573.319 584.8,573.319 581.265,569.142C580.892,579.792 584.021,580.332 579.287,589.787C569.611,609.115 569.072,610.281 567.59,609.15C560.007,603.363 560.962,569.482 565.452,557.399C581.117,515.241 607.815,508.17 623.505,503.309C615.12,503.786 615.171,503.872 606.885,505.191C607.751,500.239 608.573,500.621 611.513,496.483C600.91,500.359 599.96,503.912 595.015,507.239C590.474,510.293 578.54,510.558 577.081,510.59C578.387,506.392 578.878,506.648 584.185,498.096C573.676,507.6 568.346,517.041 557.979,518.726C557.147,518.861 557.113,512.652 557.11,512.119C550.865,520.477 551.325,520.857 543.576,527.853C541.217,520.38 546.647,498.314 560.269,488.56C570.41,481.299 579.145,478.59 583.705,477.41C609.428,470.753 631.396,480.769 635.16,482.485C633.456,474.248 627.677,465.914 632.21,440.917C635.034,425.343 645.222,407.381 654.658,401.383C656.92,399.946 665.204,394.225 678.191,391.418C690.827,388.687 692.087,391.278 692.874,391.737C672.681,406.09 672.719,409.861 662.259,418.875C672.23,414.799 676.511,412.1 677.671,411.368C676.854,414.375 677.376,414.791 666.378,427.852C662.658,432.27 659.55,436.488 652.933,441.389C658.551,440.099 658.522,440.019 662.935,437.291C661.761,445.279 660.418,444.817 657.168,452.197C654.84,457.485 655.927,457.986 650.442,466.378C652.853,464.838 654.338,463.886 657.821,460.326C658.17,465.272 656.487,469.758 655.746,473.456C654.398,480.186 654.673,488.368 654.663,489.779C654.742,489.188 654.712,472.117 667.077,454.422C687.36,425.398 699.837,422.858 708.688,419.135C764.294,395.747 801.981,432.024 807.103,436.542C794.783,435.633 779.791,433.564 777.425,433.238C769.323,432.12 762.888,432.161 748.527,430.573C752.976,433.658 752.979,433.52 757.672,436.144C746.413,439.4 746.312,438.601 734.698,439.728C728.112,440.367 721.029,439.674 719.847,439.559C724.419,442.425 724.376,442.384 729.438,444.342C726.979,445.596 717.38,450.495 695.692,451.522C702.27,453.451 702.219,453.51 709.001,453.964C702.345,458.894 696.885,461.812 689.897,467.372C685.486,470.882 673.826,482.224 672.462,483.551C676.717,480.081 691.8,464.89 726.729,460.915C761.956,456.905 784.109,471.297 792.339,476.356C802.184,482.409 823.069,493.925 840.516,530.245C829.397,527.256 830.307,525.452 821.739,520.038C819.825,518.828 810.535,512.959 799.227,502.886C800.859,506.142 800.327,506.362 805.421,514.151C796.595,512.75 791.384,507.436 772.52,493.265C773.692,496.612 773.547,496.6 777.421,503.593C769.565,503.981 757.727,500.522 756.241,499.52C754.437,498.304 741.396,485.981 740.126,484.781C741.625,490.553 741.451,490.571 743.756,496.12C727.691,495.786 726.772,492.652 707.955,492.84C693.183,492.988 686.021,496.31 679.455,498.367C701.148,501.521 713.055,498.233 731.695,514.008C753.41,532.384 760.26,563.943 762.123,570.438C747.36,562.097 749.311,559.203 734.362,551.35C728.674,548.362 725.805,541.463 722.261,535.568C723.775,542.766 723.654,542.723 725.864,549.724C718.081,547.595 708.063,539.808 707.868,539.447C707.486,538.738 707.689,538.663 704.091,530.116C703.76,529.33 703.635,529.466 699.53,520.473C698.876,525.22 698.313,525.356 701.617,534.697C692.796,531.495 693.473,530.288 685.278,525.63C675.785,520.235 661.306,503.98 658.45,507.931C645.065,526.448 648.355,543.913 649.671,554.243Z" style="fill:rgb(110,149,54);"/>
                </g>
            </g>
            <g transform="matrix(-2.71895,0.242276,0.242276,2.71895,37934.5,-5102.51)">
                <g transform="matrix(1.32256,0,0,1.32256,1850.04,1527.43)">
                    <path d="M692.416,535.875C703.14,550.093 717.001,567.479 740.413,618.554C759.796,660.841 770.357,694.29 776.387,726.461C782.281,757.908 778.666,766.411 798.073,765.502C802.93,765.274 820.691,769.811 806.375,771.899C797.909,773.134 798.401,775.961 790.55,775.486C785.039,775.153 785.084,775.749 780.165,778.267C771.423,782.74 777.569,790.475 772.994,794.187C766.868,799.157 760.936,788.066 751.195,788.813C746.465,789.176 746.515,789.563 741.826,789.03C736.88,788.467 734.31,791.896 728.267,789.827C735.184,783.072 746.009,788.706 746.301,767.389C746.914,722.585 731.657,660.394 723.846,636.235C714.888,608.53 705.585,580.875 655.49,505.702C655.166,505.216 651.043,500.266 655.628,498.319C657.003,497.736 661.016,498.036 664.314,502.24C665.772,504.097 678.373,517.256 692.416,535.875Z" style="fill:rgb(174,125,66);"/>
                </g>
                <g transform="matrix(1.32256,0,0,1.32256,1850.04,1527.43)">
                    <path d="M649.671,554.243C645.002,553.215 644.217,552.909 638.665,547.397C642.78,555.36 643.703,554.659 648.143,559.648C652.564,564.616 651.731,577.738 651.63,579.334C651.301,584.531 641.845,577.983 639.454,576.534C651.887,588.525 649.801,590.111 653.627,611.535C653.958,613.386 656.824,620.448 649.82,618.396C637.539,614.8 621.17,591.488 620.381,570.999C618.914,532.848 636.584,516.372 638.318,514.315C636.598,515.507 628.253,519.305 612.927,538.692C609.291,535.244 609.889,534.903 607.784,530.399C606.341,543.107 610.577,544.649 602.409,554.55C597.003,561.103 595.49,556.68 592.856,551.842C592.252,560.054 593.956,561.306 593.207,565.681C592.419,570.277 589.325,576.08 588.871,576.931C584.699,573.319 584.8,573.319 581.265,569.142C580.892,579.792 584.021,580.332 579.287,589.787C569.611,609.115 569.072,610.281 567.59,609.15C560.007,603.363 560.962,569.482 565.452,557.399C581.117,515.241 607.815,508.17 623.505,503.309C615.12,503.786 615.171,503.872 606.885,505.191C607.751,500.239 608.573,500.621 611.513,496.483C600.91,500.359 599.96,503.912 595.015,507.239C590.474,510.293 578.54,510.558 577.081,510.59C578.387,506.392 578.878,506.648 584.185,498.096C573.676,507.6 568.346,517.041 557.979,518.726C557.147,518.861 557.113,512.652 557.11,512.119C550.865,520.477 551.325,520.857 543.576,527.853C541.217,520.38 546.647,498.314 560.269,488.56C570.41,481.299 579.145,478.59 583.705,477.41C609.428,470.753 631.396,480.769 635.16,482.485C633.456,474.248 627.677,465.914 632.21,440.917C635.034,425.343 645.222,407.381 654.658,401.383C656.92,399.946 665.204,394.225 678.191,391.418C690.827,388.687 692.087,391.278 692.874,391.737C672.681,406.09 672.719,409.861 662.259,418.875C672.23,414.799 676.511,412.1 677.671,411.368C676.854,414.375 677.376,414.791 666.378,427.852C662.658,432.27 659.55,436.488 652.933,441.389C658.551,440.099 658.522,440.019 662.935,437.291C661.761,445.279 660.418,444.817 657.168,452.197C654.84,457.485 655.927,457.986 650.442,466.378C652.853,464.838 654.338,463.886 657.821,460.326C658.17,465.272 656.487,469.758 655.746,473.456C654.398,480.186 654.673,488.368 654.663,489.779C654.742,489.188 654.712,472.117 667.077,454.422C687.36,425.398 699.837,422.858 708.688,419.135C764.294,395.747 801.981,432.024 807.103,436.542C794.783,435.633 779.791,433.564 777.425,433.238C769.323,432.12 762.888,432.161 748.527,430.573C752.976,433.658 752.979,433.52 757.672,436.144C746.413,439.4 746.312,438.601 734.698,439.728C728.112,440.367 721.029,439.674 719.847,439.559C724.419,442.425 724.376,442.384 729.438,444.342C726.979,445.596 717.38,450.495 695.692,451.522C702.27,453.451 702.219,453.51 709.001,453.964C702.345,458.894 696.885,461.812 689.897,467.372C685.486,470.882 673.826,482.224 672.462,483.551C676.717,480.081 691.8,464.89 726.729,460.915C761.956,456.905 784.109,471.297 792.339,476.356C802.184,482.409 823.069,493.925 840.516,530.245C829.397,527.256 830.307,525.452 821.739,520.038C819.825,518.828 810.535,512.959 799.227,502.886C800.859,506.142 800.327,506.362 805.421,514.151C796.595,512.75 791.384,507.436 772.52,493.265C773.692,496.612 773.547,496.6 777.421,503.593C769.565,503.981 757.727,500.522 756.241,499.52C754.437,498.304 741.396,485.981 740.126,484.781C741.625,490.553 741.451,490.571 743.756,496.12C727.691,495.786 726.772,492.652 707.955,492.84C693.183,492.988 686.021,496.31 679.455,498.367C701.148,501.521 713.055,498.233 731.695,514.008C753.41,532.384 760.26,563.943 762.123,570.438C747.36,562.097 749.311,559.203 734.362,551.35C728.674,548.362 725.805,541.463 722.261,535.568C723.775,542.766 723.654,542.723 725.864,549.724C718.081,547.595 708.063,539.808 707.868,539.447C707.486,538.738 707.689,538.663 704.091,530.116C703.76,529.33 703.635,529.466 699.53,520.473C698.876,525.22 698.313,525.356 701.617,534.697C692.796,531.495 693.473,530.288 685.278,525.63C675.785,520.235 661.306,503.98 658.45,507.931C645.065,526.448 648.355,543.913 649.671,554.243Z" style="fill:rgb(110,149,54);"/>
                </g>
            </g>
            <g transform="matrix(1.03478,0.0800342,-0.0800342,1.03478,26479.5,-448.509)">
                <path d="M5148.44,2676.86C4959.68,2735.97 4959.16,2738.83 4133.4,2810.72C3781.09,2841.39 3780.64,2822.26 3714.12,2831.76C3510.41,2860.84 3509.13,2845.72 3426.35,2811.57C3706.08,2675.36 3684.94,2644.2 3807.69,2546.69C4013.33,2383.33 4244.26,2502.72 4290.98,2493.83C4581.09,2438.63 4564.33,2605.66 4859.95,2601C5021.39,2598.46 5028.45,2601.05 5068.95,2613.52C5118.87,2628.88 5113.11,2637.71 5148.44,2676.86Z" style="fill:rgb(231,200,162);"/>
            </g>
        </g>
    </g>
</svg>
